<svg xmlns="http://www.w3.org/2000/svg" version="1.1" width="512px" height="512px" style="shape-rendering:geometricPrecision; text-rendering:geometricPrecision; image-rendering:optimizeQuality; fill-rule:evenodd; clip-rule:evenodd" xmlns:xlink="http://www.w3.org/1999/xlink">
  <g>
    <path style="opacity:0.985" fill="currentColor" d="M 511.5,239.5 C 511.5,254.5 511.5,269.5 511.5,284.5C 501.712,368.067 462.045,433.233 392.5,480C 375.96,489.937 358.626,498.27 340.5,505C 332.538,508.098 325.704,506.598 320,500.5C 319.667,499.167 319.333,497.833 319,496.5C 318.945,465.803 318.278,435.136 317,404.5C 314.745,393.198 309.578,383.532 301.5,375.5C 386.523,365.627 425.023,317.96 417,232.5C 414.092,213.02 406.092,196.02 393,181.5C 395.13,171.162 396.63,160.662 397.5,150C 396.942,137.045 394.276,124.545 389.5,112.5C 380.987,111.166 372.653,111.999 364.5,115C 348.649,121.258 333.649,129.092 319.5,138.5C 276.833,126.5 234.167,126.5 191.5,138.5C 178.232,129.698 164.232,122.198 149.5,116C 140.423,112.415 131.09,111.248 121.5,112.5C 116.859,124.233 114.192,136.399 113.5,149C 114.241,160.014 115.741,170.847 118,181.5C 101.046,200.681 92.5461,223.181 92.5,249C 91.8045,278.57 99.3045,305.737 115,330.5C 132.176,351.18 154.009,364.347 180.5,370C 190.178,371.835 199.845,373.668 209.5,375.5C 200.217,385.316 194.55,396.983 192.5,410.5C 175.315,417.772 157.982,418.272 140.5,412C 134.129,408.635 128.629,404.135 124,398.5C 119.333,391.833 114.667,385.167 110,378.5C 101.35,369.175 90.6832,363.842 78,362.5C 65.3442,363.322 64.1776,367.489 74.5,375C 86.1029,381.936 94.9362,391.436 101,403.5C 111.325,435.484 133.325,451.817 167,452.5C 175.507,451.583 184.007,450.583 192.5,449.5C 192.667,465.17 192.5,480.837 192,496.5C 188.976,505.311 182.809,508.478 173.5,506C 94.2419,477.075 40.4086,422.909 12,343.5C 6.2084,324.034 2.04173,304.367 -0.5,284.5C -0.5,269.5 -0.5,254.5 -0.5,239.5C 10.224,149.84 54.224,82.0066 131.5,36C 200.175,0.151196 271.175,-5.18214 344.5,20C 409.529,45.589 457.363,89.7557 488,152.5C 500.7,180.31 508.534,209.31 511.5,239.5 Z"/>
  </g>
</svg>
