<?xml version="1.0" encoding="UTF-8"?>
<!DOCTYPE svg PUBLIC "-//W3C//DTD SVG 1.1//EN" "http://www.w3.org/Graphics/SVG/1.1/DTD/svg11.dtd">
<svg xmlns="http://www.w3.org/2000/svg" version="1.1" width="512px" height="512px" style="shape-rendering:geometricPrecision; text-rendering:geometricPrecision; image-rendering:optimizeQuality; fill-rule:evenodd; clip-rule:evenodd" xmlns:xlink="http://www.w3.org/1999/xlink">
<g><path style="opacity:0.986" fill="#000000" d="M 80.5,29.5 C 173.5,29.5 266.5,29.5 359.5,29.5C 359.5,33.5 359.5,37.5 359.5,41.5C 270.166,41.3333 180.833,41.5 91.5,42C 61.6667,45.1667 45.1667,61.6667 42,91.5C 41.5,176.833 41.3333,262.166 41.5,347.5C 37.5,347.5 33.5,347.5 29.5,347.5C 29.3333,258.499 29.5,169.499 30,80.5C 36.3475,52.9863 53.1809,35.9863 80.5,29.5 Z"/></g>
<g><path style="opacity:0.975" fill="#000000" d="M 367.5,29.5 C 388.503,29.3334 409.503,29.5 430.5,30C 455.935,35.4343 472.435,50.601 480,75.5C 481.657,193.798 481.99,312.132 481,430.5C 474.833,458 458,474.833 430.5,481C 313.833,481.667 197.167,481.667 80.5,481C 53,474.833 36.1667,458 30,430.5C 29.5001,412.17 29.3334,393.836 29.5,375.5C 33.5,375.5 37.5,375.5 41.5,375.5C 41.3334,390.17 41.5001,404.837 42,419.5C 43.8886,445.387 57.3886,461.553 82.5,468C 194.813,469.648 307.146,469.982 419.5,469C 449.324,465.842 465.824,449.342 469,419.5C 469.982,307.146 469.648,194.813 468,82.5C 461.545,57.379 445.378,43.879 419.5,42C 402.17,41.5001 384.837,41.3334 367.5,41.5C 367.5,37.5 367.5,33.5 367.5,29.5 Z"/></g>
<g><path style="opacity:0.916" fill="#000000" d="M 335.5,113.5 C 342.149,112.112 347.316,114.112 351,119.5C 352.961,124.677 354.294,130.01 355,135.5C 355.332,144.514 355.332,153.514 355,162.5C 367.799,177.724 373.965,195.391 373.5,215.5C 373.808,233.797 369.975,251.131 362,267.5C 348.522,287.17 329.689,298.003 305.5,300C 305.043,300.414 304.709,300.914 304.5,301.5C 307.571,307.114 309.404,313.114 310,319.5C 310.333,337.5 310.667,355.5 311,373.5C 315.19,376.934 319.19,380.6 323,384.5C 325.337,390.799 323.17,394.632 316.5,396C 278.117,398.233 239.784,397.9 201.5,395C 200.584,394.626 199.75,394.126 199,393.5C 197.381,389.265 198.048,385.265 201,381.5C 204.516,379.074 207.849,376.407 211,373.5C 211.5,364.84 211.666,356.173 211.5,347.5C 197.285,349.721 184.285,346.888 172.5,339C 169.296,336.131 166.463,332.965 164,329.5C 159.582,316.299 151.582,305.966 140,298.5C 135.2,287.608 138.867,282.274 151,282.5C 156.598,282.524 161.764,284.024 166.5,287C 174.066,294.81 181.4,302.81 188.5,311C 196.369,313.908 204.369,314.241 212.5,312C 214.316,308.207 216.316,304.54 218.5,301C 195.394,298.033 176.227,287.866 161,270.5C 152.242,257.896 147.242,243.896 146,228.5C 145.333,218.5 145.333,208.5 146,198.5C 146.719,193.342 148.052,188.342 150,183.5C 153.597,176.633 157.43,169.966 161.5,163.5C 157.941,147.654 159.441,132.32 166,117.5C 168.573,114.972 171.739,113.972 175.5,114.5C 183.577,114.615 191.243,116.449 198.5,120C 205.65,123.671 212.65,127.505 219.5,131.5C 232.96,128.155 246.627,126.822 260.5,127.5C 272.799,127.082 284.966,128.082 297,130.5C 309.016,122.737 321.849,117.07 335.5,113.5 Z M 170.5,311.5 C 180.831,325.02 194.497,329.853 211.5,326C 216.738,325.297 221.238,323.13 225,319.5C 226.238,311.345 230.238,305.011 237,300.5C 239.462,296.131 238.629,292.631 234.5,290C 178.47,285.633 153.303,255.466 159,199.5C 161.704,188.091 167.038,178.091 175,169.5C 174.222,161.878 173.389,154.212 172.5,146.5C 172.961,140.068 173.961,133.735 175.5,127.5C 189.966,130.066 202.966,135.9 214.5,145C 215.667,145.167 216.833,145.333 218,145.5C 244.747,138.125 271.58,137.792 298.5,144.5C 306.978,139.76 315.645,135.26 324.5,131C 329.294,128.62 334.294,127.287 339.5,127C 341.589,132.614 342.589,138.447 342.5,144.5C 341.851,151.524 341.351,158.524 341,165.5C 354.07,179.533 360.57,196.2 360.5,215.5C 360.278,228.833 358.111,241.833 354,254.5C 344.643,272.453 329.809,282.953 309.5,286C 301.526,287.497 293.526,288.83 285.5,290C 282.903,292.317 282.07,295.15 283,298.5C 285.703,301.538 288.703,304.205 292,306.5C 293.608,309.382 294.941,312.382 296,315.5C 297.259,335.463 297.925,355.463 298,375.5C 298.765,378.196 299.932,380.696 301.5,383C 289.592,384.147 277.592,384.647 265.5,384.5C 254.167,384.333 242.833,384.167 231.5,384C 227.789,383.825 224.122,383.325 220.5,382.5C 222.194,380.446 223.361,378.112 224,375.5C 224.961,362.405 224.628,349.405 223,336.5C 221.649,334.99 219.982,333.99 218,333.5C 205.781,336.578 193.948,335.411 182.5,330C 176.598,325.021 172.598,318.854 170.5,311.5 Z"/></g>
<g><path style="opacity:1" fill="#000000" d="M 29.5,355.5 C 33.5,355.5 37.5,355.5 41.5,355.5C 41.5,359.5 41.5,363.5 41.5,367.5C 37.5,367.5 33.5,367.5 29.5,367.5C 29.5,363.5 29.5,359.5 29.5,355.5 Z"/></g>
</svg>
